<?xml version="1.0" encoding="utf-8"?>
<!-- Generator: Adobe Illustrator 24.2.3, SVG Export Plug-In . SVG Version: 6.00 Build 0)  -->
<svg version="1.1" id="Ebene_1" xmlns="http://www.w3.org/2000/svg" xmlns:xlink="http://www.w3.org/1999/xlink" x="0px" y="0px"
	 viewBox="0 0 1288 229" style="enable-background:new 0 0 1288 229;" xml:space="preserve">
<style type="text/css">
	.st0{fill:#002B44;}
	.st1{fill:#A90D00;}
</style>
<g>
	<path class="st0" d="M350.71,152.22c18.82-9.08,31.02-27.28,31.02-49.54c0-32.82-25.41-56.3-59.5-56.3h-68.69v170.19h36.82v-58.09
		h23.62l33.25,58.09h41.13L350.71,152.22z M319.82,124.47h-29.46V80.4h29.46c15.41,0,24.6,9.3,24.6,22.03
		C344.42,115.21,335.23,124.47,319.82,124.47z"/>
	<path class="st0" d="M668.78,46.38h-34.77l-66.71,170.19h39.08l11.68-32.27h67.73l11.88,32.27h39.96L668.78,46.38z M629.55,152.21
		l22.21-60.85l22.44,60.85H629.55z"/>
	<rect x="763.07" y="178.59" class="st0" width="37.62" height="37.97"/>
	<g>
		<path class="st0" d="M906.47,82.16c-17.87,0-33.56,7.51-43.49,19.35l-6.92-16.23H831.7v131.29h35.5v-69.01
			c0-21.13,11.16-34.23,29.46-34.23c15.36,0,22.9,9.57,22.9,29.42v73.82h35.5V137C955.05,103.76,936.4,82.16,906.47,82.16"/>
		<path class="st0" d="M1015.16,101.37l-6.31-16.09h-22.76v131.29h35.5v-68.21c0-21.46,7.91-30.32,27.91-30.32h15.41V84.55h-11.67
			C1036.37,84.55,1024.51,89.76,1015.16,101.37"/>
	</g>
	<polygon class="st0" points="1241.86,85.28 1216.08,163.78 1180.79,86.19 1170.77,86.19 1136.63,163.5 1110.67,85.28 
		1074.61,85.28 1118.06,216.57 1146.63,216.57 1175.81,148.67 1205.52,216.57 1234.1,216.57 1277,85.28 	"/>
	<path class="st0" d="M131.51,42.29v35.06c29.89,0,54.13,24.23,54.13,54.13c0,29.89-24.23,54.13-54.13,54.13
		s-54.13-24.24-54.13-54.13H42.33c0,49.26,39.93,89.19,89.19,89.19s89.19-39.93,89.19-89.19S180.77,42.29,131.51,42.29"/>
	<path class="st0" d="M459.19,169.75c-21.14-21.14-21.14-55.41,0-76.55c21.14-21.14,55.41-21.14,76.55,0l24.79-24.79
		c-34.83-34.83-91.3-34.83-126.13,0c-34.83,34.83-34.83,91.3,0,126.13c34.83,34.83,91.3,34.83,126.13,0l-24.79-24.79
		C514.6,190.9,480.33,190.9,459.19,169.75"/>
	<path class="st1" d="M99.28,10.11c-0.07,0-0.13,0-0.2,0c-49.26,0-89.19,39.93-89.19,89.19h35.06c0-29.9,24.23-54.13,54.13-54.13
		c0.07,0,0.13,0,0.2,0V10.11z"/>
</g>
</svg>
